<svg id="图层_1" data-name="图层 1" xmlns="http://www.w3.org/2000/svg" viewBox="0 0 40 40"><defs><style>.cls-1{fill:#683cee;}.cls-2{fill:#fff;fill-rule:evenodd;}</style></defs><title>kuaiyoutong-gmail</title><g id="example"><g id="应用中心"><g id="快邮通"><g id="Group-2"><g id="Group"><rect id="Rectangle-Copy" class="cls-1" width="40" height="40" rx="4"/><g id="Polaris-icon_Minor_Mono_kuaiyoutong" data-name="Polaris-icon/Minor/Mono/kuaiyoutong"><g id="Mask"><path id="path-1" class="cls-2" d="M28.75,12.5A1.29,1.29,0,0,1,30,13.74V18a1,1,0,0,1-2,.11V18h0V14.81l-7.28,6A1.29,1.29,0,0,1,20,21a1.23,1.23,0,0,1-.59-.15l-.14-.08L12,15.05V27H22a1,1,0,0,1,1,1h0a1,1,0,0,1-1,1H11.25A1.29,1.29,0,0,1,10,27.78V13.88a1.33,1.33,0,0,1,1.12-1.37H28.75ZM29.28,19a.49.49,0,0,1,.52,0,.5.5,0,0,1,.19.49h0l-1.5,9a.48.48,0,0,1-.28.37A.52.52,0,0,1,28,29a.48.48,0,0,1-.26-.07h0L26.16,28l-1.94,1A.42.42,0,0,1,24,29a.48.48,0,0,1-.26-.07.5.5,0,0,1-.24-.43h0V26.36l-3.26-2a.49.49,0,0,1,0-.87h0Zm-.57,2.15-4,4.74,2.92,1.75ZM24.5,27v.71l.64-.33ZM27.55,21l-6,3,2.3,1.38ZM27,14.07H13l7,5.32Z"/></g></g></g></g></g></g></g></svg>